<?xml version="1.0" standalone="no"?>
<!DOCTYPE svg PUBLIC "-//W3C//DTD SVG 20010904//EN"
 "http://www.w3.org/TR/2001/REC-SVG-20010904/DTD/svg10.dtd">
<svg version="1.0" xmlns="http://www.w3.org/2000/svg"
 width="300.000000pt" height="300.000000pt" viewBox="0 0 300.000000 300.000000"
 preserveAspectRatio="xMidYMid meet">

<g transform="translate(0.000000,300.000000) scale(0.100000,-0.100000)"
fill="#000000" stroke="none">
<path d="M1378 2704 c-76 -18 -162 -63 -219 -113 -57 -50 -72 -74 -391 -626
-550 -950 -570 -987 -589 -1090 -20 -111 10 -244 79 -344 48 -70 168 -173 249
-213 58 -28 74 -31 210 -39 184 -10 1365 -10 1603 0 170 7 177 8 243 40 96 46
183 134 233 236 39 79 39 80 39 200 0 114 -2 123 -32 187 -17 37 -45 87 -61
110 -16 24 -199 338 -407 698 -208 360 -397 684 -421 721 -56 85 -140 164
-208 195 -57 26 -186 55 -239 53 -18 0 -58 -7 -89 -15z m247 -165 c67 -32 131
-97 163 -167 33 -72 37 -183 9 -251 -18 -43 -139 -256 -590 -1036 -306 -530
-297 -517 -366 -563 -107 -71 -221 -79 -337 -22 -166 81 -236 275 -158 440 31
65 783 1372 849 1475 37 59 98 109 168 138 62 25 195 19 262 -14z m599 -883
c136 -235 246 -429 244 -430 -10 -4 -777 10 -782 15 -16 15 -106 176 -106 188
0 8 69 136 154 285 85 149 169 302 187 339 28 61 33 66 44 50 7 -10 123 -211
259 -447z m-720 -393 c9 -22 -10 -41 -25 -26 -13 13 -5 43 10 43 5 0 12 -8 15
-17z m1001 -203 c64 -31 134 -101 165 -165 21 -42 25 -65 25 -140 0 -78 -4
-97 -28 -146 -49 -102 -143 -170 -258 -189 -69 -11 -1459 -15 -1459 -4 0 3 21
30 48 58 44 50 139 201 303 489 l73 128 540 -3 541 -3 50 -25z"/>
</g>
</svg>
